{
    "asset" : {
        "generator" : "Khronos glTF Blender I/O v1.8.19",
        "version" : "2.0"
    },
    "scene" : 0,
    "scenes" : [
        {
            "name" : "Scene",
            "nodes" : [
                0
            ]
        }
    ],
    "nodes" : [
        {
            "mesh" : 0,
            "name" : "\u4f4f\u5b85\u697c27"
        }
    ],
    "materials" : [
        {
            "doubleSided" : true,
            "name" : "vray Mat3d66-552696-19-971",
            "pbrMetallicRoughness" : {
                "baseColorFactor" : [
                    0.800000011920929,
                    0.800000011920929,
                    0.800000011920929,
                    1
                ],
                "metallicFactor" : 0,
                "roughnessFactor" : 0.5
            }
        },
        {
            "doubleSided" : true,
            "name" : "vray Mat3d66-552696-6-80",
            "pbrMetallicRoughness" : {
                "baseColorFactor" : [
                    0.800000011920929,
                    0.800000011920929,
                    0.800000011920929,
                    1
                ],
                "metallicFactor" : 0,
                "roughnessFactor" : 0.5
            }
        },
        {
            "doubleSided" : true,
            "name" : "ld11.003",
            "pbrMetallicRoughness" : {
                "baseColorFactor" : [
                    0.5,
                    0.5,
                    0.5,
                    1
                ],
                "metallicFactor" : 0,
                "roughnessFactor" : 0.5
            }
        },
        {
            "doubleSided" : true,
            "name" : "vray Mat3d66-552696-4-191",
            "pbrMetallicRoughness" : {
                "baseColorFactor" : [
                    0.4274510145187378,
                    0.33333298563957214,
                    0.2549020051956177,
                    1
                ],
                "metallicFactor" : 0,
                "roughnessFactor" : 0.5
            }
        },
        {
            "doubleSided" : true,
            "name" : "vray Mat3d66-552696-9-707.001",
            "pbrMetallicRoughness" : {
                "baseColorFactor" : [
                    0.21176500618457794,
                    0.22745099663734436,
                    0.24313700199127197,
                    1
                ],
                "metallicFactor" : 0,
                "roughnessFactor" : 0.5
            }
        },
        {
            "alphaMode" : "BLEND",
            "doubleSided" : true,
            "name" : "vray Mat3d66-552696-5-14.001",
            "pbrMetallicRoughness" : {
                "baseColorFactor" : [
                    0.24705900251865387,
                    0.3294120132923126,
                    0.35686299204826355,
                    0.834645688533783
                ],
                "metallicFactor" : 0,
                "roughnessFactor" : 0.5
            }
        }
    ],
    "meshes" : [
        {
            "name" : "Obj3d66-555102-49-937",
            "primitives" : [
                {
                    "attributes" : {
                        "POSITION" : 0,
                        "NORMAL" : 1,
                        "TEXCOORD_0" : 2
                    },
                    "indices" : 3,
                    "material" : 0
                },
                {
                    "attributes" : {
                        "POSITION" : 4,
                        "NORMAL" : 5,
                        "TEXCOORD_0" : 6
                    },
                    "indices" : 7,
                    "material" : 1
                },
                {
                    "attributes" : {
                        "POSITION" : 8,
                        "NORMAL" : 9,
                        "TEXCOORD_0" : 10
                    },
                    "indices" : 11,
                    "material" : 2
                },
                {
                    "attributes" : {
                        "POSITION" : 12,
                        "NORMAL" : 13,
                        "TEXCOORD_0" : 14
                    },
                    "indices" : 15,
                    "material" : 3
                },
                {
                    "attributes" : {
                        "POSITION" : 16,
                        "NORMAL" : 17,
                        "TEXCOORD_0" : 18
                    },
                    "indices" : 19,
                    "material" : 4
                },
                {
                    "attributes" : {
                        "POSITION" : 20,
                        "NORMAL" : 21,
                        "TEXCOORD_0" : 22
                    },
                    "indices" : 23,
                    "material" : 5
                }
            ]
        }
    ],
    "accessors" : [
        {
            "bufferView" : 0,
            "componentType" : 5126,
            "count" : 3029,
            "max" : [
                26.285907745361328,
                19.200010299682617,
                11.801177978515625
            ],
            "min" : [
                -25.114219665527344,
                7.62939453125e-06,
                -11.09881591796875
            ],
            "type" : "VEC3"
        },
        {
            "bufferView" : 1,
            "componentType" : 5126,
            "count" : 3029,
            "type" : "VEC3"
        },
        {
            "bufferView" : 2,
            "componentType" : 5126,
            "count" : 3029,
            "type" : "VEC2"
        },
        {
            "bufferView" : 3,
            "componentType" : 5123,
            "count" : 3744,
            "type" : "SCALAR"
        },
        {
            "bufferView" : 4,
            "componentType" : 5126,
            "count" : 344,
            "max" : [
                25.810970306396484,
                0.45001983642578125,
                -6.198814392089844
            ],
            "min" : [
                -12.98892593383789,
                0,
                -13.6387939453125
            ],
            "type" : "VEC3"
        },
        {
            "bufferView" : 5,
            "componentType" : 5126,
            "count" : 344,
            "type" : "VEC3"
        },
        {
            "bufferView" : 6,
            "componentType" : 5126,
            "count" : 344,
            "type" : "VEC2"
        },
        {
            "bufferView" : 7,
            "componentType" : 5123,
            "count" : 396,
            "type" : "SCALAR"
        },
        {
            "bufferView" : 8,
            "componentType" : 5126,
            "count" : 194,
            "max" : [
                25.88576889038086,
                18.600011825561523,
                11.401176452636719
            ],
            "min" : [
                -24.71408462524414,
                1.1444091796875e-05,
                -10.698806762695312
            ],
            "type" : "VEC3"
        },
        {
            "bufferView" : 9,
            "componentType" : 5126,
            "count" : 194,
            "type" : "VEC3"
        },
        {
            "bufferView" : 10,
            "componentType" : 5126,
            "count" : 194,
            "type" : "VEC2"
        },
        {
            "bufferView" : 11,
            "componentType" : 5123,
            "count" : 288,
            "type" : "SCALAR"
        },
        {
            "bufferView" : 12,
            "componentType" : 5126,
            "count" : 3804,
            "max" : [
                26.185779571533203,
                18.60001564025879,
                11.701164245605469
            ],
            "min" : [
                -25.014156341552734,
                9.5367431640625e-06,
                -11.098793029785156
            ],
            "type" : "VEC3"
        },
        {
            "bufferView" : 13,
            "componentType" : 5126,
            "count" : 3804,
            "type" : "VEC3"
        },
        {
            "bufferView" : 14,
            "componentType" : 5126,
            "count" : 3804,
            "type" : "VEC2"
        },
        {
            "bufferView" : 15,
            "componentType" : 5123,
            "count" : 5184,
            "type" : "SCALAR"
        },
        {
            "bufferView" : 16,
            "componentType" : 5126,
            "count" : 22172,
            "max" : [
                26.29582977294922,
                18.50001335144043,
                11.811210632324219
            ],
            "min" : [
                -25.124065399169922,
                0.4500083923339844,
                -11.10882568359375
            ],
            "type" : "VEC3"
        },
        {
            "bufferView" : 17,
            "componentType" : 5126,
            "count" : 22172,
            "type" : "VEC3"
        },
        {
            "bufferView" : 18,
            "componentType" : 5126,
            "count" : 22172,
            "type" : "VEC2"
        },
        {
            "bufferView" : 19,
            "componentType" : 5123,
            "count" : 29946,
            "type" : "SCALAR"
        },
        {
            "bufferView" : 20,
            "componentType" : 5126,
            "count" : 4066,
            "max" : [
                25.905784606933594,
                18.450014114379883,
                11.421165466308594
            ],
            "min" : [
                -24.73415756225586,
                0.450009822845459,
                -14.309722900390625
            ],
            "type" : "VEC3"
        },
        {
            "bufferView" : 21,
            "componentType" : 5126,
            "count" : 4066,
            "type" : "VEC3"
        },
        {
            "bufferView" : 22,
            "componentType" : 5126,
            "count" : 4066,
            "type" : "VEC2"
        },
        {
            "bufferView" : 23,
            "componentType" : 5123,
            "count" : 5430,
            "type" : "SCALAR"
        }
    ],
    "bufferViews" : [
        {
            "buffer" : 0,
            "byteLength" : 36348,
            "byteOffset" : 0
        },
        {
            "buffer" : 0,
            "byteLength" : 36348,
            "byteOffset" : 36348
        },
        {
            "buffer" : 0,
            "byteLength" : 24232,
            "byteOffset" : 72696
        },
        {
            "buffer" : 0,
            "byteLength" : 7488,
            "byteOffset" : 96928
        },
        {
            "buffer" : 0,
            "byteLength" : 4128,
            "byteOffset" : 104416
        },
        {
            "buffer" : 0,
            "byteLength" : 4128,
            "byteOffset" : 108544
        },
        {
            "buffer" : 0,
            "byteLength" : 2752,
            "byteOffset" : 112672
        },
        {
            "buffer" : 0,
            "byteLength" : 792,
            "byteOffset" : 115424
        },
        {
            "buffer" : 0,
            "byteLength" : 2328,
            "byteOffset" : 116216
        },
        {
            "buffer" : 0,
            "byteLength" : 2328,
            "byteOffset" : 118544
        },
        {
            "buffer" : 0,
            "byteLength" : 1552,
            "byteOffset" : 120872
        },
        {
            "buffer" : 0,
            "byteLength" : 576,
            "byteOffset" : 122424
        },
        {
            "buffer" : 0,
            "byteLength" : 45648,
            "byteOffset" : 123000
        },
        {
            "buffer" : 0,
            "byteLength" : 45648,
            "byteOffset" : 168648
        },
        {
            "buffer" : 0,
            "byteLength" : 30432,
            "byteOffset" : 214296
        },
        {
            "buffer" : 0,
            "byteLength" : 10368,
            "byteOffset" : 244728
        },
        {
            "buffer" : 0,
            "byteLength" : 266064,
            "byteOffset" : 255096
        },
        {
            "buffer" : 0,
            "byteLength" : 266064,
            "byteOffset" : 521160
        },
        {
            "buffer" : 0,
            "byteLength" : 177376,
            "byteOffset" : 787224
        },
        {
            "buffer" : 0,
            "byteLength" : 59892,
            "byteOffset" : 964600
        },
        {
            "buffer" : 0,
            "byteLength" : 48792,
            "byteOffset" : 1024492
        },
        {
            "buffer" : 0,
            "byteLength" : 48792,
            "byteOffset" : 1073284
        },
        {
            "buffer" : 0,
            "byteLength" : 32528,
            "byteOffset" : 1122076
        },
        {
            "buffer" : 0,
            "byteLength" : 10860,
            "byteOffset" : 1154604
        }
    ],
    "buffers" : [
        {
            "byteLength" : 1165464,
            "uri" : "data:application/octet-stream;base64,"
        }
    ]
}
